<svg fill="none" height="41" viewBox="0 0 41 41" width="41" xmlns="http://www.w3.org/2000/svg">
  <g clip-path="url(#clip0_40_575)">
    <path d="M20.5 0H37.0801C39.245 0 41 1.755 41 3.9199V37.0801C41 39.245 39.245 41 37.0801 41H20.5V0Z"
          fill="#5A5C5B"/>
    <path d="M0 3.9199C0 1.755 1.755 0 3.9199 0H20.5V41H3.9199C1.755 41 0 39.245 0 37.0801V3.9199Z" fill="#F7CF1B"/>
    <path d="M3.88867 37.3983V32.3516H5.10846V36.4077H7.20797V37.3983H3.88867Z" fill="#5A5C5B"/>
    <path
        d="M13.1613 34.8746C13.1613 35.4299 13.0545 35.9005 12.8409 36.2866C12.6274 36.6727 12.3382 36.9659 11.9735 37.1663C11.6105 37.3668 11.2031 37.467 10.7513 37.467C10.2979 37.467 9.88962 37.3659 9.52655 37.1639C9.16348 36.9618 8.87516 36.6685 8.66163 36.2841C8.44969 35.8981 8.34375 35.4282 8.34375 34.8746C8.34375 34.3193 8.44969 33.8487 8.66163 33.4626C8.87516 33.0765 9.16348 32.7833 9.52655 32.5828C9.88962 32.3824 10.2979 32.2822 10.7513 32.2822C11.2031 32.2822 11.6105 32.3824 11.9735 32.5828C12.3382 32.7833 12.6274 33.0765 12.8409 33.4626C13.0545 33.8487 13.1613 34.3193 13.1613 34.8746ZM11.9144 34.8746C11.9144 34.546 11.8676 34.2684 11.7739 34.0417C11.6819 33.815 11.5488 33.6433 11.3747 33.5266C11.2023 33.41 10.9944 33.3517 10.7513 33.3517C10.5098 33.3517 10.302 33.41 10.1278 33.5266C9.95372 33.6433 9.8198 33.815 9.72615 34.0417C9.63414 34.2684 9.58816 34.546 9.58816 34.8746C9.58816 35.2031 9.63414 35.4808 9.72615 35.7075C9.8198 35.9342 9.95372 36.1059 10.1278 36.2225C10.302 36.3392 10.5098 36.3975 10.7513 36.3975C10.9944 36.3975 11.2023 36.3392 11.3747 36.2225C11.5488 36.1059 11.6819 35.9342 11.7739 35.7075C11.8676 35.4808 11.9144 35.2031 11.9144 34.8746Z"
        fill="#5A5C5B"/>
    <path
        d="M19.2034 32.3516V37.3983H18.1684L16.16 34.4856H16.128V37.3983H14.9082V32.3516H15.9579L17.9441 35.2594H17.986V32.3516H19.2034Z"
        fill="#5A5C5B"/>
    <path
        d="M21.8496 37.3983V32.3516H23.9344C24.3122 32.3516 24.6383 32.4255 24.9126 32.5734C25.1887 32.7196 25.4014 32.9241 25.5509 33.187C25.7004 33.4482 25.7751 33.7521 25.7751 34.0987C25.7751 34.447 25.6987 34.7518 25.546 35.013C25.3948 35.2725 25.1788 35.4738 24.8979 35.6167C24.617 35.7596 24.2834 35.8311 23.8974 35.8311H22.6111V34.87H23.6707C23.8547 34.87 24.0083 34.838 24.1315 34.7739C24.2563 34.7099 24.3508 34.6203 24.4149 34.5053C24.479 34.3887 24.511 34.2531 24.511 34.0987C24.511 33.9427 24.479 33.808 24.4149 33.6946C24.3508 33.5796 24.2563 33.4909 24.1315 33.4284C24.0066 33.366 23.853 33.3348 23.6707 33.3348H23.0694V37.3983H21.8496Z"
        fill="#F7CF1B"/>
    <path
        d="M27.5605 37.3983V32.3516H31.0795V33.3422H28.7803V34.3772H30.8996V35.3703H28.7803V36.4077H31.0795V37.3983H27.5605Z"
        fill="#F7CF1B"/>
    <path
        d="M33.0723 37.3983V32.3516H35.157C35.5349 32.3516 35.861 32.4197 36.1353 32.5561C36.4113 32.6908 36.6241 32.8847 36.7736 33.1377C36.923 33.389 36.9978 33.6872 36.9978 34.0322C36.9978 34.3821 36.9214 34.6795 36.7686 34.9242C36.6159 35.1674 36.399 35.353 36.1181 35.4812C35.8372 35.6077 35.5045 35.6709 35.12 35.6709H33.8017V34.7099H34.8934C35.0773 34.7099 35.231 34.686 35.3542 34.6384C35.479 34.5891 35.5735 34.5152 35.6376 34.4166C35.7016 34.3164 35.7337 34.1882 35.7337 34.0322C35.7337 33.8761 35.7016 33.7472 35.6376 33.6453C35.5735 33.5418 35.479 33.4646 35.3542 33.4136C35.2293 33.3611 35.0757 33.3348 34.8934 33.3348H34.2921V37.3983H33.0723ZM35.9136 35.0918L37.1703 37.3983H35.8396L34.6075 35.0918H35.9136Z"
        fill="#F7CF1B"/>
  </g>
  <defs>
    <clipPath id="clip0_40_575">
      <rect fill="white" height="41" rx="4" width="41"/>
    </clipPath>
  </defs>
</svg>
